<svg id="Logo" xmlns="http://www.w3.org/2000/svg" xmlns:xlink="http://www.w3.org/1999/xlink" viewBox="0 0 400 400"><defs><style>.cls-1{fill:none;}.cls-2{fill:url(#linear-gradient);}.cls-3{fill:#ffc31c;}.cls-4{fill:#ee564e;}.cls-5{fill:#ffe28c;}.cls-6{fill:#585757;}.cls-7{fill:#ffaf03;}.cls-8{clip-path:url(#clip-path);}</style><linearGradient id="linear-gradient" x1="281.79" y1="327.53" x2="128.06" y2="85.42" gradientUnits="userSpaceOnUse"><stop offset="0" stop-color="#00a6ed"/><stop offset="1" stop-color="#5e2bff"/></linearGradient><clipPath id="clip-path"><rect class="cls-1" x="105.29" y="154.35" width="189.41" height="85.08"/></clipPath></defs><path class="cls-2" d="M245.9,261.4a34.47,34.47,0,0,0-2.38-12.86,30.46,30.46,0,0,0-8.1-11.19,60,60,0,0,0-15-9.51,143.31,143.31,0,0,0-23-8,215.87,215.87,0,0,1-32-11.45,116.16,116.16,0,0,1-26.87-16.56A76.54,76.54,0,0,1,120,169.25q-7-12.85-7-29.6a62.82,62.82,0,0,1,6.87-29.42,67.38,67.38,0,0,1,19-22.56,89.18,89.18,0,0,1,28.72-14.36,123.6,123.6,0,0,1,35.94-5,110.73,110.73,0,0,1,36.74,5.82A85.86,85.86,0,0,1,269,90.41a73.62,73.62,0,0,1,25.37,56.64H246.08A50.51,50.51,0,0,0,243,131.2a33.59,33.59,0,0,0-8.1-12.43,37.37,37.37,0,0,0-13.39-8.1,55,55,0,0,0-18.77-2.91,59,59,0,0,0-17.53,2.38,38.05,38.05,0,0,0-12.95,6.7,28.56,28.56,0,0,0-8,10.21,30.1,30.1,0,0,0-2.73,12.78,24.19,24.19,0,0,0,3.61,13,35.68,35.68,0,0,0,10.49,10.48,86.53,86.53,0,0,0,16.65,8.55,209.25,209.25,0,0,0,22.11,7.22,192.41,192.41,0,0,1,32.42,12.51,104.42,104.42,0,0,1,25.46,17.53,73.9,73.9,0,0,1,16.56,23.08,68.62,68.62,0,0,1,5.91,28.81q0,16.92-6.79,30a64.85,64.85,0,0,1-18.76,22.2A84.72,84.72,0,0,1,240.61,327a132.84,132.84,0,0,1-36.12,4.67,134.46,134.46,0,0,1-24.22-2.21,111.57,111.57,0,0,1-23.09-6.78,101.29,101.29,0,0,1-20.52-11.45,77.44,77.44,0,0,1-16.48-16,72.76,72.76,0,0,1-10.92-20.79,79.35,79.35,0,0,1-4-25.72h48.63q.36,11.63,4.06,19.91a35.7,35.7,0,0,0,10.3,13.57A42.84,42.84,0,0,0,184.14,290a78.65,78.65,0,0,0,20.35,2.47,61.15,61.15,0,0,0,17.53-2.3,39.6,39.6,0,0,0,13-6.34,27.55,27.55,0,0,0,8.1-9.78A28.08,28.08,0,0,0,245.9,261.4Z"/><rect class="cls-3" x="170.73" y="51.22" width="58.54" height="292.68" rx="10"/><rect class="cls-4" x="170.73" width="58.54" height="43.9" rx="10"/><path class="cls-5" d="M200,400a9.77,9.77,0,0,1-8.12-4.34l-2.7-4.06-16.81-25.21a9.76,9.76,0,0,1,8.12-15.17h39a9.76,9.76,0,0,1,8.12,15.17l-19.51,29.27A9.77,9.77,0,0,1,200,400Z"/><path class="cls-6" d="M210.82,391.6l-2.7,4.06a9.77,9.77,0,0,1-16.24,0l-2.7-4.06a41.09,41.09,0,0,1,21.64,0Z"/><rect class="cls-7" x="185.37" y="51.22" width="29.27" height="292.68"/><g class="cls-8"><path class="cls-2" d="M245.9,261.4a34.47,34.47,0,0,0-2.38-12.86,30.46,30.46,0,0,0-8.1-11.19,60,60,0,0,0-15-9.51,143.31,143.31,0,0,0-23-8,215.87,215.87,0,0,1-32-11.45,116.16,116.16,0,0,1-26.87-16.56A76.54,76.54,0,0,1,120,169.25q-7-12.85-7-29.6a62.82,62.82,0,0,1,6.87-29.42,67.38,67.38,0,0,1,19-22.56,89.18,89.18,0,0,1,28.72-14.36,123.6,123.6,0,0,1,35.94-5,110.73,110.73,0,0,1,36.74,5.82A85.86,85.86,0,0,1,269,90.41a73.62,73.62,0,0,1,25.37,56.64H246.08A50.51,50.51,0,0,0,243,131.2a33.59,33.59,0,0,0-8.1-12.43,37.37,37.37,0,0,0-13.39-8.1,55,55,0,0,0-18.77-2.91,59,59,0,0,0-17.53,2.38,38.05,38.05,0,0,0-12.95,6.7,28.56,28.56,0,0,0-8,10.21,30.1,30.1,0,0,0-2.73,12.78,24.19,24.19,0,0,0,3.61,13,35.68,35.68,0,0,0,10.49,10.48,86.53,86.53,0,0,0,16.65,8.55,209.25,209.25,0,0,0,22.11,7.22,192.41,192.41,0,0,1,32.42,12.51,104.42,104.42,0,0,1,25.46,17.53,73.9,73.9,0,0,1,16.56,23.08,68.62,68.62,0,0,1,5.91,28.81q0,16.92-6.79,30a64.85,64.85,0,0,1-18.76,22.2A84.72,84.72,0,0,1,240.61,327a132.84,132.84,0,0,1-36.12,4.67,134.46,134.46,0,0,1-24.22-2.21,111.57,111.57,0,0,1-23.09-6.78,101.29,101.29,0,0,1-20.52-11.45,77.44,77.44,0,0,1-16.48-16,72.76,72.76,0,0,1-10.92-20.79,79.35,79.35,0,0,1-4-25.72h48.63q.36,11.63,4.06,19.91a35.7,35.7,0,0,0,10.3,13.57A42.84,42.84,0,0,0,184.14,290a78.65,78.65,0,0,0,20.35,2.47,61.15,61.15,0,0,0,17.53-2.3,39.6,39.6,0,0,0,13-6.34,27.55,27.55,0,0,0,8.1-9.78A28.08,28.08,0,0,0,245.9,261.4Z"/></g></svg>